<?xml version="1.0" encoding="utf-8"?>
<!-- Generator: Adobe Illustrator 13.0.0, SVG Export Plug-In . SVG Version: 6.00 Build 14948)  -->
<!DOCTYPE svg PUBLIC "-//W3C//DTD SVG 1.0//EN" "http://www.w3.org/TR/2001/REC-SVG-20010904/DTD/svg10.dtd">
<svg version="1.0"
	 id="svg2" xmlns:dc="http://purl.org/dc/elements/1.1/" xmlns:cc="http://creativecommons.org/ns#" xmlns:rdf="http://www.w3.org/1999/02/22-rdf-syntax-ns#" xmlns:svg="http://www.w3.org/2000/svg" xmlns:sodipodi="http://sodipodi.sourceforge.net/DTD/sodipodi-0.dtd" xmlns:inkscape="http://www.inkscape.org/namespaces/inkscape" sodipodi:version="0.32" sodipodi:docname="fan.svg" inkscape:version="0.46" inkscape:output_extension="org.inkscape.output.svg.inkscape"
	 xmlns="http://www.w3.org/2000/svg" xmlns:xlink="http://www.w3.org/1999/xlink" x="0px" y="0px" width="55px" height="55px"
	 viewBox="0 0 55 55" enable-background="new 0 0 55 55" xml:space="preserve">
<g id="XMLID_1_">
	<g>
		<polygon fill="#070707" points="43.255,10.793 45.119,12.547 33.843,20.309 		"/>
		<path fill="#FFFFFF" d="M49.506,20.947c8.949,8.34-16.729,5.89-16.729,5.89l-0.004-0.004l1.175-1.068L49.506,20.947z"/>
		<polygon fill="#070707" points="31.127,7.917 33.042,7.917 32.729,16.155 		"/>
		<path fill="#070707" d="M32.777,26.836c0,0,25.678,2.451,16.729-5.89l-0.255-0.868l1.374-0.408c0,0,12.673,11.975-18.553,7.66
			l-0.01-0.009l0.689-0.472l0.021-0.017L32.777,26.836z"/>
		<path fill="#070707" d="M32.166,24.964c0,0-1.473,1.213-3.061,1.949l-0.043-0.089c0,0,0.574-2.234,0.142-4.226
			c0.655,0.34,1.455,0.898,2.392,1.792c0,0.004,0,0.004,0.004,0.008C31.783,24.572,31.971,24.76,32.166,24.964z"/>
		<path fill="#FFFFFF" d="M29.2,22.594c0,0,0.004,0,0.004,0.004C29.2,22.598,29.2,22.594,29.2,22.594z"/>
		<path fill="#070707" d="M29.2,22.594c-0.2-0.936-0.626-1.821-1.439-2.392c0.03,0,0.056,0.004,0.085,0.009
			c0.042,0.008,0.081,0.013,0.123,0.025c0.792,0.459,2.196,1.574,3.626,4.153c-0.938-0.894-1.736-1.451-2.393-1.792
			C29.204,22.594,29.2,22.594,29.2,22.594z"/>
		<path fill="#FFFFFF" d="M28.725,29.406c0.642-0.26,1.145-0.583,1.336-0.711l11.416,9.388C30.65,41.73,28.796,29.926,28.725,29.406
			z"/>
		<path fill="#070707" d="M24.693,28.391c-0.145-0.248-0.281-0.537-0.4-0.865c-0.089-0.243-0.17-0.506-0.238-0.796
			c0,0-0.345-1.021-0.43-2.251c-0.021-0.29-0.03-0.596-0.013-0.902c0,0,0,0,0-0.004c0.073-1.349,0.592-2.715,2.251-3.157
			c0,0,0.166-0.085,0.468-0.157c0.017-0.004,0.03-0.009,0.047-0.009v-0.004c0.323-0.076,0.796-0.132,1.375-0.046
			c0.004,0,0.004,0,0.008,0.004c0.813,0.57,1.239,1.456,1.439,2.392c-1.379-0.719-2.115-0.489-2.115-0.489
			c-2.928,0.664-1.724,3.872-1.724,3.872c0.451,1.928,2.153,1.672,3.745,0.937c1.588-0.736,3.061-1.949,3.061-1.949
			c-0.195-0.204-0.383-0.392-0.566-0.566c-0.004-0.004-0.004-0.004-0.004-0.008c-1.43-2.579-2.834-3.694-3.625-4.153
			c1.379,0.272,3.311,1.332,5.396,4.541l15.885-4.698l0.255,0.868l-15.558,4.817l-1.175,1.068l-0.021,0.017l-0.688,0.472
			l-1.346,0.919l-0.574,0.392c0,0-0.029,0.021-0.084,0.064c-0.191,0.127-0.694,0.45-1.336,0.71
			c-0.223,0.094-0.465,0.175-0.711,0.234c-0.955,0.241-2.048,0.213-2.891-0.687C24.97,28.794,24.83,28.605,24.693,28.391z"/>
		<path fill="#070707" d="M45.706,38.505c0,0-15.63,8.876-17.688-8.853v-0.004l-0.004-0.008c0.246-0.061,0.488-0.142,0.711-0.234
			c0.071,0.52,1.926,12.324,12.752,8.677l-11.416-9.388c0.055-0.043,0.084-0.063,0.084-0.063l0.574-0.392l0.006,0.009L45.706,38.505
			z"/>
		<path fill="#070707" d="M27.847,20.164c0,0.03,0,0.047,0,0.047c-0.03-0.004-0.056-0.009-0.085-0.009
			c-0.004-0.004-0.004-0.004-0.008-0.004c-0.132-0.098-0.276-0.183-0.43-0.26C27.357,19.947,27.549,20.002,27.847,20.164z"/>
		<path fill="#070707" d="M26.37,20.207c-2.796-10.745-12.081-5.328-12.332-5.179l9.574,8.544c0,0.004,0,0.004,0,0.004
			c-0.017,0.307-0.008,0.613,0.013,0.902h-0.004l-12.549-9.311c16.311-9.932,16.762,4.081,16.775,4.996
			c-0.298-0.162-0.489-0.217-0.523-0.226c0.153,0.077,0.298,0.162,0.43,0.26c-0.579-0.085-1.051-0.03-1.375,0.046L26.37,20.207z"/>
		<path fill="#FFFFFF" d="M29.105,26.913c-1.591,0.736-3.293,0.991-3.745-0.937c0,0-1.204-3.208,1.724-3.872
			c0,0,0.736-0.23,2.115,0.489c0,0,0,0.004,0.004,0.004c0.435,1.991-0.142,4.226-0.142,4.226L29.105,26.913z"/>
		<path fill="#FFFFFF" d="M25.864,20.415c-1.66,0.442-2.179,1.809-2.251,3.157l-9.574-8.544c0.251-0.149,9.536-5.566,12.332,5.179
			l0.008,0.038v0.004c-0.017,0-0.03,0.004-0.047,0.009C26.029,20.33,25.864,20.415,25.864,20.415z"/>
		<path fill="#070707" d="M24.285,27.53c-40.494-1.566-9.06,6.558-9.06,6.558l9.46-5.693l0.008-0.004
			c0.136,0.217,0.276,0.403,0.43,0.564l-0.004,0.005l-9.574,7.91c0,0-36.098-12.838,8.511-10.14c0.068,0.29,0.149,0.553,0.238,0.796
			L24.285,27.53z"/>
		<path fill="#FFFFFF" d="M15.225,34.088c0,0-31.434-8.124,9.06-6.558l0.009-0.004c0.119,0.328,0.255,0.617,0.4,0.865l-0.008,0.004
			L15.225,34.088z"/>
	</g>
	<g>
		<path fill="none" stroke="#FFFFFF" d="M27.761,20.202c0.03,0,0.056,0.004,0.085,0.009c0.042,0.008,0.081,0.013,0.123,0.025
			c1.378,0.272,3.31,1.332,5.396,4.541"/>
		<path fill="none" stroke="#FFFFFF" d="M23.612,23.572c0.073-1.349,0.592-2.715,2.251-3.157c0,0,0.166-0.085,0.468-0.157
			c0.017-0.004,0.03-0.009,0.047-0.009v-0.004c0.323-0.076,0.796-0.132,1.375-0.046"/>
		<path fill="none" stroke="#FFFFFF" d="M33.948,25.764l-1.175,1.068l-0.021,0.017l-0.688,0.472l-1.346,0.919l-0.574,0.392
			c0,0-0.029,0.021-0.084,0.063c-0.191,0.128-0.694,0.451-1.336,0.711c-0.223,0.094-0.465,0.175-0.711,0.234
			c-0.955,0.241-2.048,0.213-2.891-0.687c-0.153-0.161-0.293-0.349-0.43-0.565c-0.145-0.246-0.281-0.536-0.4-0.864
			c-0.089-0.243-0.17-0.506-0.238-0.796c0,0-0.345-1.021-0.43-2.251c-0.021-0.29-0.03-0.596-0.013-0.902"/>
		<path fill="none" stroke="#FFFFFF" d="M31.6,24.398c0.185,0.174,0.371,0.362,0.566,0.566c0,0-1.473,1.213-3.061,1.949
			c-1.591,0.736-3.293,0.991-3.745-0.937c0,0-1.204-3.208,1.724-3.872c0,0,0.736-0.23,2.115,0.489c0,0,0,0.004,0.004,0.004
			c0.655,0.34,1.455,0.898,2.392,1.792"/>
		<polyline fill="none" stroke="#FFFFFF" points="11.068,15.168 11.072,15.168 23.621,24.479 		"/>
		<path fill="none" stroke="#FFFFFF" d="M27.847,20.211c0,0,0-0.017,0-0.047c-0.013-0.915-0.464-14.928-16.775-4.996"/>
		<path fill="none" stroke="#FFFFFF" d="M14.038,15.028c0.251-0.149,9.536-5.566,12.332,5.179"/>
		<line fill="none" stroke="#FFFFFF" x1="14.038" y1="15.028" x2="14.034" y2="15.028"/>
		<line fill="none" stroke="#FFFFFF" x1="23.612" y1="23.577" x2="23.612" y2="23.572"/>
		<path fill="none" stroke="#FFFFFF" d="M33.366,24.777l15.885-4.698l1.374-0.408c0,0,12.673,11.974-18.553,7.66"/>
		<path fill="none" stroke="#FFFFFF" d="M30.725,28.249l14.981,10.256c0,0-15.63,8.876-17.688-8.853"/>
		<path fill="none" stroke="#FFFFFF" d="M28.719,29.391c0,0,0,0.004,0.006,0.017c0.071,0.52,1.926,12.323,12.752,8.677
			l-11.416-9.389l-0.099-0.08"/>
		<path fill="none" stroke="#FFFFFF" d="M25.119,28.96l-9.574,7.91c0,0-36.098-12.838,8.511-10.14"/>
		<polygon fill="none" stroke="#FFFFFF" points="33.843,20.309 45.119,12.547 43.255,10.793 		"/>
		<polygon fill="none" stroke="#FFFFFF" points="32.729,16.155 33.042,7.917 31.127,7.917 		"/>
		<line fill="none" stroke="#FFFFFF" x1="32.729" y1="16.155" x2="32.729" y2="16.16"/>
	</g>
</g>
<path fill="none" stroke="#FFFFFF" d="M39.516,34.673"/>
<path fill="none" stroke="#FFFFFF" d="M35.137,40.012"/>
<path fill="none" stroke="#FFFFFF" d="M36.188,32.406"/>
</svg>
