<?xml version="1.0" encoding="utf-8"?>
<!-- Generator: Adobe Illustrator 13.0.0, SVG Export Plug-In . SVG Version: 6.00 Build 14948)  -->
<!DOCTYPE svg PUBLIC "-//W3C//DTD SVG 1.1//EN" "http://www.w3.org/Graphics/SVG/1.1/DTD/svg11.dtd">
<svg version="1.1"
	 id="svg2" xmlns:dc="http://purl.org/dc/elements/1.1/" xmlns:sodipodi="http://sodipodi.sourceforge.net/DTD/sodipodi-0.dtd" xmlns:inkscape="http://www.inkscape.org/namespaces/inkscape" xmlns:svg="http://www.w3.org/2000/svg" xmlns:rdf="http://www.w3.org/1999/02/22-rdf-syntax-ns#" xmlns:cc="http://creativecommons.org/ns#" sodipodi:version="0.32" sodipodi:docname="stop.svg" inkscape:version="0.46" inkscape:output_extension="org.inkscape.output.svg.inkscape"
	 xmlns="http://www.w3.org/2000/svg" xmlns:xlink="http://www.w3.org/1999/xlink" x="0px" y="0px" width="55px" height="55px"
	 viewBox="0 0 55 55" enable-background="new 0 0 55 55" xml:space="preserve">
<path id="path9_3_" fill="none" stroke="#FFFFFF" stroke-width="7" d="M23.222,46.787c-9.175-1.369-16.419-9.051-16.891-18.671
	C5.792,17.155,14.237,7.833,25.193,7.292"/>
<polyline id="polyline11_2_" fill="none" stroke="#FFFFFF" stroke-width="7" stroke-linecap="round" stroke-linejoin="round" points="
	17.86,35.073 23.222,46.787 10.776,50.099 "/>
<defs>
	
	
		<inkscape:perspective  id="perspective18" sodipodi:type="inkscape:persp3d" inkscape:vp_y="0 : 1000 : 0" inkscape:vp_x="0 : 27.5 : 1" inkscape:vp_z="55 : 27.5 : 1" inkscape:persp3d-origin="27.5 : 18.333333 : 1">
		</inkscape:perspective>
</defs>
<sodipodi:namedview  id="base" pagecolor="#ffffff" showgrid="false" borderopacity="1.0" inkscape:cy="25.558599" gridtolerance="10.0" inkscape:cx="34.823433" bordercolor="#666666" guidetolerance="10.0" objecttolerance="10.0" inkscape:zoom="6.3511045" inkscape:window-y="49" inkscape:window-x="10" inkscape:window-height="722" inkscape:current-layer="svg2" inkscape:pageopacity="0.0" inkscape:window-width="642" inkscape:pageshadow="2">
	</sodipodi:namedview>
<path id="path9_1_" fill="none" stroke="#F49E21" stroke-width="4" d="M23.222,46.787c-9.175-1.369-16.418-9.051-16.891-18.671
	C5.792,17.155,14.237,7.833,25.193,7.292"/>
<polyline id="polyline11" fill="none" stroke="#F49E21" stroke-width="4" stroke-linecap="round" stroke-linejoin="round" points="
	17.86,35.073 23.222,46.787 10.776,50.099 "/>
<path id="path9_5_" fill="none" stroke="#FFFFFF" stroke-width="7" d="M32.789,7.84c9.176,1.369,16.42,9.051,16.892,18.671
	c0.54,10.962-7.906,20.284-18.862,20.824"/>
<polyline id="polyline11_4_" fill="none" stroke="#FFFFFF" stroke-width="7" stroke-linecap="round" stroke-linejoin="round" points="
	38.151,19.554 32.789,7.84 45.236,4.528 "/>
<path id="path9_4_" fill="none" stroke="#1A2C7A" stroke-width="4" d="M32.789,7.84c9.176,1.369,16.42,9.051,16.892,18.671
	c0.54,10.962-7.906,20.284-18.862,20.824"/>
<polyline id="polyline11_3_" fill="none" stroke="#1A2C7A" stroke-width="4" stroke-linecap="round" stroke-linejoin="round" points="
	38.151,19.554 32.789,7.84 45.236,4.528 "/>
<rect x="25.094" y="3.772" transform="matrix(-0.9988 0.0488 -0.0488 -0.9988 51.8533 13.2776)" fill="#FFFFFF" width="1.341" height="7"/>
<rect x="29.573" y="43.876" transform="matrix(-0.9988 0.0487 -0.0487 -0.9988 62.762 93.2039)" fill="#FFFFFF" width="1.342" height="6.982"/>
</svg>
