<?xml version="1.0" encoding="utf-8"?>
<!-- Generator: Adobe Illustrator 13.0.0, SVG Export Plug-In . SVG Version: 6.00 Build 14948)  -->
<!DOCTYPE svg PUBLIC "-//W3C//DTD SVG 1.0//EN" "http://www.w3.org/TR/2001/REC-SVG-20010904/DTD/svg10.dtd">
<svg version="1.0"
	 id="svg2" xmlns:dc="http://purl.org/dc/elements/1.1/" xmlns:cc="http://creativecommons.org/ns#" xmlns:rdf="http://www.w3.org/1999/02/22-rdf-syntax-ns#" xmlns:svg="http://www.w3.org/2000/svg" xmlns:sodipodi="http://sodipodi.sourceforge.net/DTD/sodipodi-0.dtd" xmlns:inkscape="http://www.inkscape.org/namespaces/inkscape" sodipodi:version="0.32" sodipodi:docname="seesaw.svg" inkscape:version="0.46" inkscape:output_extension="org.inkscape.output.svg.inkscape"
	 xmlns="http://www.w3.org/2000/svg" xmlns:xlink="http://www.w3.org/1999/xlink" x="0px" y="0px" width="55px" height="55px"
	 viewBox="0 0 55 55" enable-background="new 0 0 55 55" xml:space="preserve">
<defs>
	
	
		<inkscape:perspective  id="perspective10" inkscape:vp_z="744.09448 : 526.18109 : 1" inkscape:vp_y="0 : 1000 : 0" inkscape:vp_x="0 : 526.18109 : 1" sodipodi:type="inkscape:persp3d" inkscape:persp3d-origin="372.04724 : 350.78739 : 1">
		</inkscape:perspective>
</defs>
<sodipodi:namedview  id="base" inkscape:cy="32.962811" inkscape:cx="6.8763336" inkscape:zoom="5.6" showgrid="false" pagecolor="#ffffff" bordercolor="#666666" borderopacity="1.0" objecttolerance="10" gridtolerance="10000" guidetolerance="10" inkscape:current-layer="layer1" inkscape:window-y="49" inkscape:window-x="1" inkscape:pageopacity="0.0" inkscape:pageshadow="2" inkscape:window-width="1279" inkscape:window-height="725" inkscape:document-units="px">
	</sodipodi:namedview>
<path id="rect2383" stroke="#FFFFFF" stroke-width="2" d="M50.129,36.859L2.676,14.802c-0.397-0.185-0.568-0.656-0.383-1.052
	l1.673-3.576C4.151,9.777,4.623,9.605,5.02,9.79l47.453,22.058c0.396,0.185,0.568,0.655,0.383,1.052l-1.673,3.576
	C50.997,36.872,50.525,37.044,50.129,36.859z"/>
<g id="XMLID_1_">
	<g>
		<path d="M30.965,35.796c2.611,4.527,4.754,8.257,4.754,8.286c0,0.036-4.3,0.065-9.551,0.065h-9.552l0.19-0.292
			c0.103-0.168,2.26-3.898,4.798-8.294l4.608-8.001L30.965,35.796z"/>
	</g>
	<g>
		<polyline fill="none" stroke="#FFFFFF" stroke-width="2" points="26.292,25.834 26.218,25.966 15.058,45.296 		"/>
		<polyline fill="none" stroke="#FFFFFF" stroke-width="2" points="26.138,25.834 26.218,25.966 37.372,45.296 		"/>
		<line fill="none" stroke="#FFFFFF" stroke-width="2" x1="15.774" y1="44.879" x2="36.67" y2="44.879"/>
	</g>
</g>
</svg>
