<?xml version="1.0" encoding="utf-8"?>
<!-- Generator: Adobe Illustrator 13.0.0, SVG Export Plug-In . SVG Version: 6.00 Build 14948)  -->
<!DOCTYPE svg PUBLIC "-//W3C//DTD SVG 1.1//EN" "http://www.w3.org/Graphics/SVG/1.1/DTD/svg11.dtd">
<svg version="1.1"
	 id="svg2" xmlns:dc="http://purl.org/dc/elements/1.1/" xmlns:cc="http://creativecommons.org/ns#" xmlns:rdf="http://www.w3.org/1999/02/22-rdf-syntax-ns#" xmlns:svg="http://www.w3.org/2000/svg" xmlns:sodipodi="http://sodipodi.sourceforge.net/DTD/sodipodi-0.dtd" xmlns:inkscape="http://www.inkscape.org/namespaces/inkscape" sodipodi:version="0.32" sodipodi:docname="stop.svg" inkscape:version="0.46" inkscape:output_extension="org.inkscape.output.svg.inkscape"
	 xmlns="http://www.w3.org/2000/svg" xmlns:xlink="http://www.w3.org/1999/xlink" x="0px" y="0px" width="55px" height="55px"
	 viewBox="0 0 55 55" enable-background="new 0 0 55 55" xml:space="preserve">
<defs>
	
	
		<inkscape:perspective  id="perspective18" inkscape:vp_z="55 : 27.5 : 1" inkscape:vp_y="0 : 1000 : 0" inkscape:vp_x="0 : 27.5 : 1" sodipodi:type="inkscape:persp3d" inkscape:persp3d-origin="27.5 : 18.333333 : 1">
		</inkscape:perspective>
</defs>
<sodipodi:namedview  id="base" inkscape:cy="25.558599" inkscape:cx="34.823433" inkscape:zoom="6.3511045" showgrid="false" pagecolor="#ffffff" bordercolor="#666666" borderopacity="1.0" objecttolerance="10.0" gridtolerance="10.0" guidetolerance="10.0" inkscape:current-layer="svg2" inkscape:window-y="49" inkscape:window-x="10" inkscape:pageopacity="0.0" inkscape:pageshadow="2" inkscape:window-width="642" inkscape:window-height="722">
	</sodipodi:namedview>
<g id="XMLID_1_">
	<g>
		<path fill="#FFFFFF" d="M53.26,22.26c0.33,1.67,0.51,3.41,0.51,5.18c0,7.38-3.06,14.05-7.979,18.8c0.97-2.221-1.17-7.7-1.17-7.7
			L44.6,38.53c3.99-5.44,3.391-10.95,3.391-10.95C50.17,27.02,52.92,22.79,53.26,22.26z"/>
		<path fill="#FFFFFF" d="M53.26,22.26c-0.34,0.53-3.09,4.76-5.27,5.32c-4.05-4.33-7.41-5.81-7.41-5.81
			c-0.26-6.35-2.34-9.66-2.6-10.05l0.06-0.04c2.95-2.81,4.59-3.43,4.59-3.43s1.66-0.23,3.271,0.5
			C49.58,12.34,52.2,17.02,53.26,22.26z"/>
		<path fill="#020202" d="M47.99,27.58c0,0,0.6,5.51-3.391,10.95c-0.01,0-0.01,0.01-0.01,0.01s-3.83,1.66-9.63,1.01
			c0,0-0.74-4.88-2.67-10.38c3.59-2.91,8.29-7.4,8.29-7.4S43.94,23.25,47.99,27.58z"/>
		<path fill="#FFFFFF" d="M44.62,38.54c0,0,2.14,5.479,1.17,7.7c-2.83,2.75-6.271,4.85-10.11,6.09c-4.029,0.82-7.1-0.94-7.1-0.94
			s-1.11-2.35-1.59-5.109c4.21-1.91,7.97-6.73,7.97-6.73c5.8,0.65,9.63-1.01,9.63-1.01s0-0.01,0.01-0.01L44.62,38.54z"/>
		<path fill="#FFFFFF" d="M45.9,8.75c-1.61-0.73-3.271-0.5-3.271-0.5C40.65,4.29,35.4,2.68,35.4,2.68c-5.74-1.75-9.43,0.2-9.43,0.2
			S24,1.43,17.21,3.46L17.2,3.44c3.19-1.39,6.71-2.16,10.4-2.16C34.72,1.28,41.19,4.13,45.9,8.75z"/>
		<path fill="#020202" d="M42.63,8.25c0,0-1.64,0.62-4.59,3.43l-0.06,0.04c-0.021-0.03-0.03-0.04-0.03-0.04
			c-3.94-2.69-10.78-3.31-10.78-3.31s-0.64-3.99-1.2-5.49c0,0,3.69-1.95,9.43-0.2C35.4,2.68,40.65,4.29,42.63,8.25z"/>
		<path fill="#FFFFFF" d="M37.98,11.72c0.26,0.39,2.34,3.7,2.6,10.05c0,0-4.7,4.49-8.29,7.4c0,0-3.94-1.38-10.92-3.53
			c0,0-1.73-5.46-2.49-10.29c0,0,0-0.01,0.01-0.02c0.25-0.32,4.2-5.56,8.28-6.96c0,0,6.84,0.62,10.78,3.31
			C37.95,11.68,37.96,11.69,37.98,11.72z"/>
		<path fill="#FFFFFF" d="M32.29,29.17c1.93,5.5,2.67,10.38,2.67,10.38s-3.76,4.82-7.97,6.73c0,0-7.12-0.37-10.67-3.55
			c0,0-2.85-4.141-2.97-9.99c0,0,1.68-2.61,8.02-7.1C28.35,27.79,32.29,29.17,32.29,29.17z"/>
		<path fill="#FFFFFF" d="M28.58,51.39c0,0,3.07,1.761,7.1,0.94c-2.55,0.83-5.26,1.28-8.08,1.28c-1.8,0-3.57-0.181-5.27-0.53v-0.04
			C22.33,53.04,26.76,52.75,28.58,51.39z"/>
		<path fill="#020202" d="M26.99,46.28c0.48,2.76,1.59,5.109,1.59,5.109c-1.82,1.36-6.25,1.65-6.25,1.65v0.04
			c-2.04-0.42-3.99-1.07-5.82-1.94c-2.15-1.3-4.24-4.52-4.24-4.52c1.91-1.58,4.05-3.89,4.05-3.89
			C19.87,45.91,26.99,46.28,26.99,46.28z"/>
		<path fill="#FFFFFF" d="M25.97,2.88c0.56,1.5,1.2,5.49,1.2,5.49c-4.08,1.4-8.03,6.64-8.28,6.96l-0.08-0.05
			c-6.13-1.07-9.03,0.9-9.31,1.1l-0.04-0.07c0,0-0.46-4.61-0.04-7.6L9.38,8.67c2.25-2.19,4.9-3.97,7.82-5.23l0.01,0.02
			C24,1.43,25.97,2.88,25.97,2.88z"/>
		<path fill="#020202" d="M18.88,15.35c0.76,4.83,2.49,10.29,2.49,10.29c-6.34,4.49-8.02,7.1-8.02,7.1
			c-5.46-3.57-6.79-5.95-6.79-5.95S6.17,20.92,9.48,16.4c0,0,0.01-0.01,0.02-0.02c0.28-0.2,3.18-2.17,9.31-1.1l0.08,0.05
			C18.88,15.34,18.88,15.35,18.88,15.35z"/>
		<path fill="#FFFFFF" d="M16.32,42.73c0,0-2.14,2.31-4.05,3.89c0,0-2.48-0.37-3.44-1.04l-0.04,0.04c-3.61-3.72-6.11-8.51-7-13.851
			l0.13-0.02c1.31-2.72,4.64-4.96,4.64-4.96s1.33,2.38,6.79,5.95C13.47,38.59,16.32,42.73,16.32,42.73z"/>
		<path fill="#FFFFFF" d="M9.46,16.31l0.04,0.07c-0.01,0.01-0.02,0.02-0.02,0.02c-3.31,4.52-2.92,10.39-2.92,10.39
			s-3.33,2.24-4.64,4.96l-0.13,0.02c-0.24-1.409-0.36-2.85-0.36-4.33c0-7.37,3.05-14.02,7.95-18.77l0.04,0.04
			C9,11.7,9.46,16.31,9.46,16.31z"/>
	</g>
	<g>
		<path fill="none" stroke="#070707" stroke-width="2" d="M17.2,3.44c3.19-1.39,6.71-2.16,10.4-2.16c7.12,0,13.59,2.85,18.3,7.47
			c3.68,3.59,6.3,8.27,7.359,13.51c0.33,1.67,0.51,3.41,0.51,5.18c0,7.38-3.06,14.05-7.979,18.8c-2.83,2.75-6.271,4.85-10.11,6.09
			c-2.55,0.83-5.26,1.28-8.08,1.28c-1.8,0-3.57-0.181-5.27-0.53c-2.04-0.42-3.99-1.07-5.82-1.94c-2.91-1.35-5.52-3.239-7.72-5.52
			c-3.61-3.72-6.11-8.51-7-13.851c-0.24-1.409-0.36-2.85-0.36-4.33c0-7.37,3.05-14.02,7.95-18.77C11.63,6.48,14.28,4.7,17.2,3.44z"
			/>
		<path fill="none" stroke="#000000" stroke-width="2" d="M21.37,25.64c0,0-1.73-5.46-2.49-10.29c0,0,0-0.01,0.01-0.02
			c0.25-0.32,4.2-5.56,8.28-6.96c0,0,6.84,0.62,10.78,3.31c0,0,0.01,0.01,0.03,0.04c0.26,0.39,2.34,3.7,2.6,10.05
			c0,0-4.7,4.49-8.29,7.4C32.29,29.17,28.35,27.79,21.37,25.64z"/>
		<path fill="none" stroke="#000000" stroke-width="2" d="M40.58,21.77c0,0,3.36,1.48,7.41,5.81c0,0,0.6,5.51-3.391,10.95
			c-0.01,0-0.01,0.01-0.01,0.01s-3.83,1.66-9.63,1.01c0,0-0.74-4.88-2.67-10.38"/>
		<path fill="none" stroke="#000000" stroke-width="2" d="M34.96,39.55c0,0-3.76,4.82-7.97,6.73c0,0-7.12-0.37-10.67-3.55
			c0,0-2.85-4.141-2.97-9.99c0,0,1.68-2.61,8.02-7.1"/>
		<path fill="none" stroke="#000000" stroke-width="2" d="M18.81,15.28c-6.13-1.07-9.03,0.9-9.31,1.1
			c-0.01,0.01-0.02,0.02-0.02,0.02c-3.31,4.52-2.92,10.39-2.92,10.39s1.33,2.38,6.79,5.95"/>
		<path fill="none" stroke="#000000" stroke-width="2" d="M27.17,8.37c0,0-0.64-3.99-1.2-5.49c0,0,3.69-1.95,9.43-0.2
			c0,0,5.25,1.61,7.229,5.57c0,0-1.64,0.62-4.59,3.43"/>
		<path fill="none" stroke="#000000" stroke-width="2" d="M53.29,22.21c0,0-0.01,0.02-0.03,0.05c-0.34,0.53-3.09,4.76-5.27,5.32"/>
		<path fill="none" stroke="#000000" stroke-width="2" d="M25.97,2.88c0,0-1.97-1.45-8.76,0.58"/>
		<path fill="none" stroke="#000000" stroke-width="2" d="M9.46,16.31c0,0-0.46-4.61-0.04-7.6"/>
		<path fill="none" stroke="#000000" stroke-width="2" d="M6.56,26.79c0,0-3.33,2.24-4.64,4.96"/>
		<path fill="none" stroke="#000000" stroke-width="2" d="M16.32,42.73c0,0-2.14,2.31-4.05,3.89c0,0-2.48-0.37-3.44-1.04"/>
		<path fill="none" stroke="#000000" stroke-width="2" d="M12.27,46.62c0,0,2.09,3.22,4.24,4.52c0.27,0.17,0.55,0.311,0.82,0.4"/>
		<path fill="none" stroke="#000000" stroke-width="2" d="M22.33,53.04c0,0,4.43-0.29,6.25-1.65c0,0-1.11-2.35-1.59-5.109"/>
		<path fill="none" stroke="#000000" stroke-width="2" d="M28.58,51.39c0,0,3.07,1.761,7.1,0.94c0.07-0.01,0.13-0.021,0.2-0.04"/>
		<path fill="none" stroke="#000000" stroke-width="2" d="M44.62,38.54c0,0,2.14,5.479,1.17,7.7c-0.021,0.06-0.05,0.12-0.08,0.18"/>
		<path fill="none" stroke="#000000" stroke-width="2" d="M42.63,8.25c0,0,1.66-0.23,3.271,0.5c0.06,0.02,0.119,0.05,0.18,0.08"/>
	</g>
</g>
</svg>
