<?xml version="1.0" encoding="UTF-8" standalone="no"?>
<!-- Generator: Adobe Illustrator 13.0.0, SVG Export Plug-In . SVG Version: 6.00 Build 14948)  -->
<svg
   xmlns:dc="http://purl.org/dc/elements/1.1/"
   xmlns:cc="http://creativecommons.org/ns#"
   xmlns:rdf="http://www.w3.org/1999/02/22-rdf-syntax-ns#"
   xmlns:svg="http://www.w3.org/2000/svg"
   xmlns="http://www.w3.org/2000/svg"
   xmlns:sodipodi="http://sodipodi.sourceforge.net/DTD/sodipodi-0.dtd"
   xmlns:inkscape="http://www.inkscape.org/namespaces/inkscape"
   version="1.0"
   id="svg2"
   sodipodi:version="0.32"
   sodipodi:docname="spring.svg"
   inkscape:version="0.46"
   inkscape:output_extension="org.inkscape.output.svg.inkscape"
   x="0px"
   y="0px"
   width="55px"
   height="55px"
   viewBox="0 0 55 55"
   enable-background="new 0 0 55 55"
   xml:space="preserve"><metadata
   id="metadata81"><rdf:RDF><cc:Work
       rdf:about=""><dc:format>image/svg+xml</dc:format><dc:type
         rdf:resource="http://purl.org/dc/dcmitype/StillImage" /></cc:Work></rdf:RDF></metadata><defs
   id="defs79"><inkscape:perspective
     sodipodi:type="inkscape:persp3d"
     inkscape:vp_x="0 : 27.5 : 1"
     inkscape:vp_y="0 : 1000 : 0"
     inkscape:vp_z="55 : 27.5 : 1"
     inkscape:persp3d-origin="27.5 : 18.333333 : 1"
     id="perspective83" /></defs><sodipodi:namedview
   inkscape:window-height="725"
   inkscape:window-width="1279"
   inkscape:pageshadow="2"
   inkscape:pageopacity="0.0"
   guidetolerance="10.0"
   gridtolerance="10.0"
   objecttolerance="10.0"
   borderopacity="1.0"
   bordercolor="#666666"
   pagecolor="#ffffff"
   id="base"
   showgrid="false"
   showguides="true"
   inkscape:guide-bbox="true"
   inkscape:zoom="4.4909091"
   inkscape:cx="43.855343"
   inkscape:cy="35.035401"
   inkscape:window-x="1"
   inkscape:window-y="49"
   inkscape:current-layer="svg2"><sodipodi:guide
     orientation="0,1"
     position="-18.036437,55.779352"
     id="guide2456" /></sodipodi:namedview>




<path
   style="fill:none;fill-rule:evenodd;stroke:#ffffff;stroke-width:1px;stroke-linecap:butt;stroke-linejoin:miter;stroke-opacity:1"
   d="M 25.607287,7.7935223 C 24.113992,8.54017 20.65809,9.1497193 18.481781,10.020243 C 18.197636,10.133901 17.887989,10.168691 17.591093,10.242915 C 15.926884,10.658967 14.967682,13.279235 14.251012,14.473684 C 12.689059,17.07694 14.93114,20.052597 16.700405,21.821862 C 20.338722,25.46018 25.448235,28.502024 30.951417,28.502024 C 34.958438,28.502024 37.016445,30.721788 40.748988,27.611336 C 41.194332,27.240216 41.491228,26.720648 41.862348,26.275304 C 44.079008,23.615311 35.198791,19.526453 34.068826,19.149798 C 30.647384,18.009317 27.822727,17.813765 24.271255,17.813765 C 21.389765,17.813765 19.258847,22.867096 18.481781,24.939271 C 17.283174,28.135558 16.700405,31.30245 16.700405,34.736842 C 16.700405,39.118653 22.067274,41.573032 25.607287,42.753036 C 28.223223,43.625015 31.900922,45.841037 34.51417,44.534413 C 36.370436,43.60628 34.015467,40.263624 33.178138,39.635628 C 31.233829,38.177396 27.760246,38.522267 25.384615,38.522267 C 23.485929,38.522267 22.401298,40.748174 21.59919,42.08502 C 20.39687,44.088887 21.099761,45.876775 21.59919,47.874494 C 22.082784,49.808868 25.521272,52.529104 27.388664,52.995951 C 29.077447,53.418147 30.734774,54.344043 29.615385,52.105263 C 29.158311,51.191117 27.6322,50.951541 26.720648,50.769231 C 25.844151,50.593931 24.485618,52.558916 23.825911,53.218623 C 23.364534,53.68 23.60155,53.667345 23.380567,54.109312"
   id="path3248" /><rect
   style="opacity:1;fill:#000000;fill-opacity:1;fill-rule:evenodd;stroke:#ffffff;stroke-width:2;stroke-linecap:round;stroke-linejoin:miter;stroke-miterlimit:4;stroke-dasharray:none;stroke-opacity:1"
   id="rect3236"
   width="47.985828"
   height="5.4554658"
   x="3.1174088"
   y="4.0080972" /></svg>