<?xml version="1.0" encoding="UTF-8" standalone="no"?>
<!-- Created with Inkscape (http://www.inkscape.org/) -->
<svg
   xmlns:dc="http://purl.org/dc/elements/1.1/"
   xmlns:cc="http://creativecommons.org/ns#"
   xmlns:rdf="http://www.w3.org/1999/02/22-rdf-syntax-ns#"
   xmlns:svg="http://www.w3.org/2000/svg"
   xmlns="http://www.w3.org/2000/svg"
   xmlns:sodipodi="http://sodipodi.sourceforge.net/DTD/sodipodi-0.dtd"
   xmlns:inkscape="http://www.inkscape.org/namespaces/inkscape"
   width="55"
   height="55"
   id="svg2"
   sodipodi:version="0.32"
   inkscape:version="0.46"
   version="1.0"
   sodipodi:docname="x.svg"
   inkscape:output_extension="org.inkscape.output.svg.inkscape">
  <defs
     id="defs4">
    <inkscape:perspective
       sodipodi:type="inkscape:persp3d"
       inkscape:vp_x="0 : 526.18109 : 1"
       inkscape:vp_y="0 : 1000 : 0"
       inkscape:vp_z="744.09448 : 526.18109 : 1"
       inkscape:persp3d-origin="372.04724 : 350.78739 : 1"
       id="perspective10" />
  </defs>
  <sodipodi:namedview
     id="base"
     pagecolor="#ffffff"
     bordercolor="#666666"
     borderopacity="1.0"
     gridtolerance="10000"
     guidetolerance="10"
     objecttolerance="10"
     inkscape:pageopacity="0.0"
     inkscape:pageshadow="2"
     inkscape:zoom="6.389674"
     inkscape:cx="15.467388"
     inkscape:cy="21.701427"
     inkscape:document-units="px"
     inkscape:current-layer="layer1"
     showgrid="false"
     inkscape:window-width="1279"
     inkscape:window-height="725"
     inkscape:window-x="1"
     inkscape:window-y="49" />
  <metadata
     id="metadata7">
    <rdf:RDF>
      <cc:Work
         rdf:about="">
        <dc:format>image/svg+xml</dc:format>
        <dc:type
           rdf:resource="http://purl.org/dc/dcmitype/StillImage" />
      </cc:Work>
    </rdf:RDF>
  </metadata>
  <g
     inkscape:label="Layer 1"
     inkscape:groupmode="layer"
     id="layer1">
    <path
       style="fill:#ffffff;fill-opacity:1;fill-rule:evenodd;stroke:#000000;stroke-width:2;stroke-miterlimit:4;stroke-opacity:1"
       d="M 7.125 2.25 C 5.815011 2.2667853 4.5871318 2.7253682 3.65625 3.65625 C 1.5285203 5.7839799 1.8287113 9.5162113 4.34375 12.03125 L 19.8125 27.5 L 4.34375 42.96875 C 1.8287111 45.483789 1.5285196 49.216019 3.65625 51.34375 C 5.7839796 53.47148 9.5162108 53.17129 12.03125 50.65625 L 27.5 35.1875 L 42.96875 50.65625 C 45.483789 53.171288 49.21602 53.47148 51.34375 51.34375 C 53.471481 49.216021 53.171289 45.483789 50.65625 42.96875 L 35.1875 27.5 L 50.65625 12.03125 C 53.171289 9.5162111 53.471479 5.7839796 51.34375 3.65625 C 49.21602 1.5285197 45.483787 1.8287109 42.96875 4.34375 L 27.5 19.8125 L 12.03125 4.34375 C 10.616541 2.9290407 8.8092716 2.2284189 7.125 2.25 z "
       id="rect2387" />
  </g>
</svg>
